# OBJ written from /Users/ryan/Desktop/å¤©ç¯/light.obj
# Units	meters

o Mesh
v -2.30053 -2.71771 -0.100035
v -2.296 -2.69558 0.00699442
v -2.31688 -2.79745 -0.0269594
v -0.343305 -3.11888 -0.100035
v -0.33877 -3.09676 0.00699442
v -0.359649 -3.19862 -0.0269594
v 2.29453 -2.71771 -0.100035
v 2.29 -2.69558 0.00699442
v 2.31088 -2.79745 -0.0269594
v 0.337305 -3.11888 -0.100035
v 0.33277 -3.09676 0.00699442
v 0.353649 -3.19862 -0.0269594
v -0.01 -2.64 -0.05
v -0.261105 -3.05584 -0.291105
v 0.231105 -3.05584 -0.291105
v 0.231105 -3.05584 0.201105
v -0.261105 -3.05584 0.201105
v -0.22145 -2.6167 -0.25145
v 0.19145 -2.6167 -0.25145
v 0.19145 -2.6167 0.16145
v -0.22145 -2.6167 0.16145
v -0.01 -2.64 -0.05
v 1.15006 -3.34764 -2.03196
v -1.15006 -3.34764 -2.03196
v -2.30012 -3.34764 -0.04
v -1.15006 -3.34764 1.95196
v 1.15006 -3.34764 1.95196
v 2.30012 -3.34764 -0.04
v 6.94022e-08 -3.34764 2.20095
v -6.94022e-08 -3.34764 -2.28095
v -1.94072 -3.34764 1.08048
v 1.94072 -3.34764 1.08048
v 1.94072 -3.34764 -1.16048
v -1.94072 -3.34764 -1.16048
v 7.67317e-09 -0.602651 -2.95082
v -6.22135e-08 -3.37045 -2.30254
v -1.15978 -3.37102 -2.0488
v -1.49248 -0.60322 -2.62505
v 1.49248 -0.60322 -2.62505
v 1.15978 -3.37102 -2.0488
v -7.67317e-09 -0.602651 2.87082
v 6.22135e-08 -3.37045 2.22254
v 1.15978 -3.37102 1.9688
v 1.49248 -0.60322 2.54505
v -1.49248 -0.60322 2.54505
v -1.15978 -3.37102 1.9688
v -3.0682 2.30644 1.73142
v -3.63351 2.30744 -0.04
v -2.98496 -0.60322 -0.04
v -2.52084 -0.602651 1.41541
v -1.95942 -3.37045 1.09127
v -2.31956 -3.37102 -0.04
v 3.0682 2.30644 1.73142
v 1.81675 2.30744 3.10671
v 2.52084 -0.602651 1.41541
v 2.98496 -0.60322 -0.04
v 1.95942 -3.37045 1.09127
v 2.31956 -3.37102 -0.04
v 3.0682 2.30644 -1.81142
v 3.63351 2.30744 -0.04
v 2.52084 -0.602651 -1.49541
v 1.95942 -3.37045 -1.17127
v -3.0682 2.30644 -1.81142
v -1.81675 2.30744 -3.18671
v -2.52084 -0.602651 -1.49541
v -1.95942 -3.37045 -1.17127
v -6.71008e-08 2.30644 3.50285
v -1.81675 2.30744 3.10671
v 6.71008e-08 2.30644 -3.58285
v 1.81675 2.30744 -3.18671
v -0.015 -2.55841 -0.291105
v -0.015 -2.55841 0.201105
v -0.015 -3.06361 -0.368445
v -0.015 -3.06361 0.278445
v 0.231105 -2.55841 -0.045
v 0.308445 -3.06361 -0.045
v -0.261105 -2.55841 -0.045
v -0.338445 -3.06361 -0.045
v -0.015 -2.44472 -0.045
v -0.01 -3.43066 -0.05
v -0.01 -3.30189 -0.491673
v -0.430056 -3.30189 -0.186484
v -0.269609 -3.30189 0.307321
v 0.249609 -3.30189 0.307321
v 0.410056 -3.30189 -0.186484
v -0.01 -3.04434 -0.491673
v -0.430056 -3.04434 -0.186484
v -0.269609 -3.04434 0.307321
v 0.249609 -3.04434 0.307321
v 0.410056 -3.04434 -0.186484
v -0.01 -2.64 -0.05
v -0.01 -2.64 -0.05
v 0 2.87886 -0.04
v 2.2512 2.80804 -0.04
v 1.94793 2.79882 -1.16464
v 1.1256 2.80804 -1.9896
v 4.26008e-08 2.79882 -2.28927
v -1.1256 2.80804 -1.9896
v -1.94793 2.79882 -1.16464
v -2.2512 2.80804 -0.04
v -1.94793 2.79882 1.08464
v -1.1256 2.80804 1.9096
v -4.26008e-08 2.79882 2.20927
v 1.1256 2.80804 1.9096
v 1.94793 2.79882 1.08464
v 0 2.99003 -0.04
v -3.55313 2.15795 -0.04
v -2.99795 2.15795 -1.77087
v -1.77656 2.15795 -3.1171
v 6.70552e-08 2.15795 -3.50174
v 1.77656 2.15795 -3.1171
v 2.99795 2.15795 -1.77087
v 3.55313 2.15795 -0.04
v 2.99795 2.15795 1.69087
v 1.77656 2.15795 3.0371
v -6.70552e-08 2.15795 3.42174
v -1.77656 2.15795 3.0371
v -2.99795 2.15795 1.69087
vn 0.365189 -0.668452 0.647927
vn 0.00532799 -0.659302 0.75186
vn -2.13295e-06 -0.220236 -0.975447
vn -4.50917e-06 -0.228144 -0.973627
vn -0.486172 -0.233557 -0.842074
vn -0.487119 -0.225527 -0.843714
vn -0.378526 -0.668453 0.640226
vn 0.487107 -0.225622 -0.843695
vn 0.486149 -0.233747 -0.842034
vn -0.365189 -0.668452 -0.647927
vn -0.00532799 -0.659302 -0.75186
vn 2.13295e-06 -0.220236 0.975447
vn 4.50917e-06 -0.228144 0.973627
vn 0.486172 -0.233557 0.842074
vn 0.487119 -0.225527 0.843714
vn 0.378526 -0.668453 -0.640226
vn -0.487108 -0.225619 0.843695
vn -0.486149 -0.233747 0.842034
vn -0.846283 -0.212307 0.488602
vn -0.976065 -0.217479 2.34102e-07
vn -0.974226 -0.225574 3.41742e-06
vn -0.844763 -0.220233 0.487722
vn 0.648463 -0.659305 -0.380543
vn -0.843188 -0.228144 0.48681
vn 0.743714 -0.668453 0.00770058
vn -0.97232 -0.233652 6.5994e-06
vn 0.846281 -0.212312 0.488601
vn 0.488033 -0.217479 0.845297
vn 0.84476 -0.220236 0.487725
vn -0.743714 -0.668453 -0.00770056
vn -0.653792 -0.659304 -0.371315
vn 0.974226 -0.225574 -3.42522e-06
vn 0.843184 -0.228144 0.486818
vn 0.97232 -0.233652 -6.5994e-06
vn 0.846282 -0.212313 -0.488601
vn 0.976065 -0.217479 -2.49709e-07
vn 0.844763 -0.220236 -0.487721
vn -0.648463 -0.659305 0.380543
vn 0.843188 -0.228144 -0.48681
vn -0.846281 -0.212312 -0.488601
vn -0.488033 -0.217479 -0.845297
vn -0.84476 -0.220236 -0.487725
vn 0.653792 -0.659304 0.371315
vn -0.843184 -0.228144 -0.486818
vn -2.43777e-07 -0.212312 0.977202
vn -0.488033 -0.217473 0.845298
vn 2.43777e-07 -0.212312 -0.977202
vn 0.488032 -0.217479 -0.845297
vn -0.0623274 -0.304081 0.950605
vn 0.196468 0.958521 -0.206489
vn -0.134141 -0.654443 -0.744117
vn 0.0623271 -0.30408 0.950605
vn -0.196468 0.958521 -0.206489
vn 0.134141 -0.654443 -0.744117
vn 0.294677 0.112304 -0.948975
vn 0 0.117522 -0.99307
vn -0.294677 0.112304 0.948975
vn 0 0.117522 0.99307
vn -0.294677 0.112304 -0.948975
vn 0.294677 0.112304 0.948975
vn 0 0.907814 -0.419374
vn 0.319252 0.860307 -0.397428
vn 0 0.907814 0.419374
vn 0.319252 0.860307 0.397428
vn 0.948975 0.112304 0.294677
vn 0.99307 0.117522 -1.55936e-08
vn -0.319252 0.860307 -0.397428
vn -0.948975 0.112304 -0.294677
vn -0.99307 0.117522 -1.55936e-08
vn 0.948975 0.112304 -0.294677
vn -0.948975 0.112304 0.294677
vn -0.319252 0.860307 0.397428
vn 0 -0.960027 -0.279908
vn 0 -1 -1.58393e-09
vn -0.266208 -0.960027 -0.0864962
vn -0.164526 -0.960027 0.22645
vn 0.164526 -0.960027 0.22645
vn 0.266208 -0.960027 -0.0864962
vn -0.587785 9.36152e-08 -0.809017
vn -0.951057 0 0.309017
vn 0 1.15715e-07 1
vn 0.951057 3.57578e-08 0.309017
vn 0.587785 0 -0.809017
vn 0.301363 0.936759 -0.177941
vn 0.188935 0.975688 -0.111072
vn 0.213965 0.976837 -0.00297809
vn 0.344109 0.938911 -0.00591678
vn 0.304783 0.936759 0.172017
vn 0.190658 0.975688 0.108086
vn 0.109562 0.976837 0.18381
vn 0.177179 0.938911 0.295049
vn -0.304783 0.936759 -0.172017
vn -0.190658 0.975688 -0.108086
vn -0.109562 0.976837 -0.18381
vn -0.177179 0.938911 -0.295049
vn 0.104403 0.976837 -0.186788
vn 0.16693 0.938911 -0.300966
vn 0.00172354 0.975688 0.219158
vn 0.00342046 0.936759 0.349958
vn -0.00172354 0.975688 -0.219158
vn -0.00342046 0.936759 -0.349958
vn -0.104403 0.976837 0.186788
vn -0.16693 0.938911 0.300966
vn -0.301363 0.936759 0.177941
vn -0.188935 0.975688 0.111072
vn -0.213965 0.976837 0.00297808
vn -0.344109 0.938911 0.00591676
vn 1.24637e-09 1 0
vn 0.84549 0.216477 0.488144
vn 0.975066 0.221914 1.09291e-07
vn 0.198843 -0.980031 2.613e-08
vn 0.176563 -0.978996 0.101939
vn -1.26964e-09 -1 6.3482e-10
vn 0.487533 0.221914 0.844432
vn 0.0994216 -0.980031 0.172203
vn -7.6152e-09 0.216477 0.976288
vn -1.86446e-09 -0.978996 0.203877
vn -0.487533 0.221914 0.844432
vn -0.0994216 -0.980031 0.172203
vn -0.84549 0.216477 0.488144
vn -0.176563 -0.978996 0.101939
vn -0.975066 0.221914 -1.09291e-07
vn -0.198843 -0.980031 -2.23972e-08
vn -0.84549 0.216477 -0.488144
vn -0.176563 -0.978996 -0.101939
vn -0.487533 0.221914 -0.844432
vn -0.0994216 -0.980031 -0.172203
vn 7.6152e-09 0.216477 -0.976288
vn 1.86446e-09 -0.978996 -0.203877
vn 0.487533 0.221914 -0.844432
vn 0.0994216 -0.980031 -0.172203
vn 0.84549 0.216477 -0.488144
vn 0.176563 -0.978996 -0.101939
vt 0.508201 0.207944
vt 0.453731 0.204194
vt 0.453898 0.202755
vt 0.5082 0.206546
vt 0.438717 0.334225
vt 0.508263 0.338975
vt 0.398432 0.195058
vt 0.398751 0.193697
vt 0.368495 0.32263
vt 0.809967 0.0973816
vt 0.765927 0.129815
vt 0.765134 0.128608
vt 0.808934 0.0964284
vt 0.837764 0.239257
vt 0.894534 0.197889
vt 0.718982 0.157767
vt 0.718357 0.156519
vt 0.777552 0.27492
vt 0.759619 0.430848
vt 0.677975 0.456301
vt 0.64657 0.322714
vt 0.713166 0.301952
vt 0.668639 0.178934
vt 0.668147 0.177573
vt 0.616519 0.195215
vt 0.616199 0.193855
vt 0.104084 0.354858
vt 0.0344904 0.304794
vt 0.121662 0.198252
vt 0.178521 0.239587
vt 0.296374 0.157438
vt 0.250292 0.129998
vt 0.251084 0.128789
vt 0.296998 0.156188
vt 0.23789 0.274721
vt 0.206189 0.0975863
vt 0.207221 0.0966314
vt 0.256953 0.431195
vt 0.177002 0.397812
vt 0.303266 0.302178
vt 0.347692 0.179055
vt 0.348184 0.177692
vt 0.59363 0.470263
vt 0.508351 0.476235
vt 0.577798 0.334145
vt 0.562662 0.204151
vt 0.562495 0.202713
vt 0.981752 0.304243
vt 0.912282 0.354353
vt 0.838553 0.397858
vt 0.423056 0.470387
vt 0.337249 0.456303
vt 0.821592 0.943369
vt 0.821393 0.953451
vt 0.634958 0.953214
vt 0.635588 0.944006
vt 0.635517 0.924693
vt 0.822122 0.924921
vt 0.821317 0.934147
vt 0.635318 0.934784
vt 0.824673 0.891392
vt 0.824847 0.901612
vt 0.635011 0.90047
vt 0.635314 0.89113
vt 0.82418 0.872692
vt 0.823876 0.882041
vt 0.634517 0.881788
vt 0.634153 0.871549
vt 0.889123 0.908329
vt 0.903928 0.906979
vt 0.90407 0.934752
vt 0.892923 0.933848
vt 0.948695 0.915068
vt 0.963364 0.920807
vt 0.949727 0.948653
vt 0.939613 0.940156
vt 0.918746 0.908177
vt 0.915208 0.933732
vt 0.859245 0.915528
vt 0.868583 0.940522
vt 0.858556 0.949123
vt 0.844636 0.921418
vt 0.90413 0.946268
vt 0.891152 0.945815
vt 0.904195 0.959021
vt 0.892669 0.957423
vt 0.874026 0.910719
vt 0.881601 0.940168
vt 0.917102 0.94568
vt 0.933867 0.910411
vt 0.926593 0.939935
vt 0.915704 0.957303
vt 0.892957 0.842515
vt 0.902975 0.856385
vt 0.886734 0.861708
vt 0.902975 0.873499
vt 0.919165 0.861688
vt 0.913043 0.842515
vt 0.892957 0.832502
vt 0.872872 0.842515
vt 0.872872 0.832502
vt 0.852786 0.842515
vt 0.852786 0.832502
vt 0.953214 0.832501
vt 0.953214 0.842514
vt 0.933128 0.842515
vt 0.933128 0.832502
vt 0.913043 0.832502
vt 0.922829 0.691157
vt 0.874127 0.663061
vt 0.886357 0.617538
vt 0.946157 0.617538
vt 0.922829 0.54392
vt 0.874127 0.572015
vt 0.840752 0.538696
vt 0.870617 0.487018
vt 0.667508 0.691157
vt 0.716209 0.663061
vt 0.749584 0.696381
vt 0.719719 0.748058
vt 0.840752 0.69638
vt 0.870617 0.748058
vt 0.795168 0.526508
vt 0.795168 0.470365
vt 0.795168 0.708568
vt 0.795168 0.764712
vt 0.749584 0.538696
vt 0.719719 0.487018
vt 0.667508 0.54392
vt 0.716209 0.572015
vt 0.703979 0.617538
vt 0.64418 0.617538
vt 0.795168 0.617538
vt 0.28692 0.91998
vt 0.232462 0.912231
vt 0.267825 0.744239
vt 0.303079 0.749256
vt 0.23656 0.628488
vt 0.252917 0.576986
vt 0.341677 0.628488
vt 0.341855 0.922688
vt 0.338641 0.75101
vt 0.289143 0.537041
vt 0.374113 0.747914
vt 0.39665 0.917904
vt 0.341677 0.525507
vt 0.450778 0.908101
vt 0.409154 0.741568
vt 0.394211 0.537041
vt 0.50309 0.89103
vt 0.443018 0.730518
vt 0.430437 0.576986
vt 0.553628 0.86922
vt 0.475735 0.7164
vt 0.446794 0.628488
vt 0.50625 0.697964
vt 0.600767 0.840741
vt 0.430437 0.679991
vt 0.645114 0.808046
vt 0.534959 0.676799
vt 0.394211 0.719936
vt 0.0800534 0.850588
vt 0.0345119 0.819592
vt 0.139683 0.684269
vt 0.169164 0.704335
vt 0.341677 0.731469
vt 0.200348 0.721605
vt 0.128226 0.877266
vt 0.289143 0.719936
vt 0.179546 0.89715
vt 0.23357 0.734477
vt 0.252917 0.679991
mtllib light.mtl
usemtl a1
g Default
f 37/1/1 36/2/2 30/3/2 24/4/1
f 35/5/3 36/2/4 37/1/5 38/6/6
f 36/2/2 40/7/7 23/8/7 30/3/2
f 39/9/8 40/7/9 36/2/4 35/5/3
f 43/10/10 42/11/11 29/12/11 27/13/10
f 41/14/12 42/11/13 43/10/14 44/15/15
f 42/11/11 46/16/16 26/17/16 29/12/11
f 45/18/17 46/16/18 42/11/13 41/14/12
f 47/19/19 48/20/20 49/21/21 50/22/22
f 46/16/16 51/23/23 31/24/23 26/17/16
f 45/18/17 50/22/22 51/23/24 46/16/18
f 51/23/23 52/25/25 25/26/25 31/24/23
f 50/22/22 49/21/21 52/25/26 51/23/24
f 53/27/27 54/28/28 44/29/15 55/30/29
f 58/31/30 57/32/31 32/33/31 28/34/30
f 56/35/32 55/30/29 57/32/33 58/31/34
f 57/32/31 43/36/10 27/37/10 32/33/31
f 55/30/29 44/29/15 43/36/14 57/32/33
f 59/38/35 60/39/36 56/35/32 61/40/37
f 40/7/7 62/41/38 33/42/38 23/8/7
f 39/9/8 61/40/37 62/41/39 40/7/9
f 62/41/38 58/31/30 28/34/30 33/42/38
f 61/40/37 56/35/32 58/31/34 62/41/39
f 63/43/40 64/44/41 38/6/6 65/45/42
f 52/25/25 66/46/43 34/47/43 25/26/25
f 49/21/21 65/45/42 66/46/44 52/25/26
f 66/46/43 37/1/1 24/4/1 34/47/43
f 65/45/42 38/6/6 37/1/5 66/46/44
f 60/39/36 53/27/27 55/30/29 56/35/32
f 54/48/28 67/49/45 41/14/12 44/15/15
f 67/49/45 68/50/46 45/18/17 41/14/12
f 47/19/19 50/22/22 45/18/17 68/50/46
f 48/20/20 63/43/40 65/45/42 49/21/21
f 64/44/41 69/51/47 35/5/3 38/6/6
f 69/51/47 70/52/48 39/9/8 35/5/3
f 70/52/48 59/38/35 61/40/37 39/9/8
f 6/53/49 5/54/49 2/55/49 3/56/49
f 2/57/50 5/58/50 4/59/50 1/60/50
f 4/59/51 6/53/51 3/56/51 1/60/51
f 9/61/52 8/62/52 11/63/52 12/64/52
f 8/65/53 7/66/53 10/67/53 11/68/53
f 10/67/54 7/66/54 9/61/54 12/64/54
f 15/69/55 73/70/56 71/71/56 19/72/55
f 17/73/57 74/74/58 72/75/58 21/76/57
f 14/77/59 18/78/59 71/71/56 73/70/56
f 16/79/60 20/80/60 72/81/58 74/82/58
f 71/71/61 79/83/61 75/84/62 19/72/62
f 72/85/63 20/86/64 75/84/64 79/83/63
f 16/79/65 76/87/66 75/88/66 20/80/65
f 71/71/61 18/78/67 77/89/67 79/83/61
f 14/77/68 78/90/69 77/91/69 18/78/68
f 15/69/70 19/72/70 75/88/66 76/87/66
f 17/73/71 21/76/71 77/91/69 78/90/69
f 72/85/63 79/83/63 77/89/72 21/92/72
f 81/93/73 80/94/74 82/95/75
f 82/95/75 80/94/74 83/96/76
f 83/96/76 80/94/74 84/97/77
f 84/97/77 80/94/74 85/98/78
f 85/98/78 80/94/74 81/93/73
f 86/99/79 81/93/79 82/100/79 87/101/79
f 87/101/80 82/100/80 83/102/80 88/103/80
f 88/104/81 83/105/81 84/106/81 89/107/81
f 89/107/82 84/106/82 85/98/82 90/108/82
f 90/108/83 85/98/83 81/93/83 86/99/83
f 59/109/84 95/110/85 94/111/86 60/112/87
f 53/113/88 105/114/89 104/115/90 54/116/91
f 63/117/92 99/118/93 98/119/94 64/120/95
f 96/121/96 95/110/85 59/109/84 70/122/97
f 104/115/90 103/123/98 67/124/99 54/116/91
f 98/119/94 97/125/100 69/126/101 64/120/95
f 69/126/101 97/125/100 96/121/96 70/122/97
f 67/124/99 103/123/98 102/127/102 68/128/103
f 47/129/104 101/130/105 100/131/106 48/132/107
f 102/127/102 101/130/105 47/129/104 68/128/103
f 94/111/86 105/114/89 53/113/88 60/112/87
f 100/131/106 99/118/93 63/117/92 48/132/107
f 104/115/90 105/114/89 106/133/108
f 105/114/89 94/111/86 106/133/108
f 94/111/86 95/110/85 106/133/108
f 95/110/85 96/121/96 106/133/108
f 96/121/96 97/125/100 106/133/108
f 97/125/100 98/119/94 106/133/108
f 98/119/94 99/118/93 106/133/108
f 99/118/93 100/131/106 106/133/108
f 100/131/106 101/130/105 106/133/108
f 101/130/105 102/127/102 106/133/108
f 102/127/102 103/123/98 106/133/108
f 103/123/98 104/115/90 106/133/108
f 108/134/109 107/135/110 25/136/110 34/137/109
f 107/138/111 108/139/112 93/140/113
f 109/141/114 108/134/109 34/137/109 24/142/114
f 109/143/115 93/140/113 108/139/112
f 109/141/114 24/142/114 30/144/116 110/145/116
f 109/143/115 110/146/117 93/140/113
f 111/147/118 110/145/116 30/144/116 23/148/118
f 111/149/119 93/140/113 110/146/117
f 112/150/120 111/147/118 23/148/118 33/151/120
f 111/149/119 112/152/121 93/140/113
f 113/153/122 112/150/120 33/151/120 28/154/122
f 113/155/123 93/140/113 112/152/121
f 113/153/122 28/154/122 32/156/124 114/157/124
f 113/155/123 114/158/125 93/140/113
f 115/159/126 114/157/124 32/156/124 27/160/126
f 115/161/127 93/140/113 114/158/125
f 116/162/128 115/163/126 27/164/126 29/165/128
f 115/161/127 116/166/129 93/140/113
f 116/162/128 29/165/128 26/167/130 117/168/130
f 117/169/131 93/140/113 116/166/129
f 107/135/110 118/170/132 31/171/132 25/136/110
f 107/138/111 93/140/113 118/172/133
f 117/168/130 26/167/130 31/171/132 118/170/132
f 117/169/131 118/172/133 93/140/113
